<svg width="58" height="68" viewBox="0 0 58 68" fill="none" xmlns="http://www.w3.org/2000/svg">
<path d="M7.83568 67.0612V8.8533H0V0H37.7537V8.8533H18.0119V67.0612H7.83568Z" fill="#1A1A1C"/>
<path d="M27.8828 67.0612V0H42.4348C45.7929 0 48.5405 0.50881 50.474 1.52643C52.5092 2.54405 53.9339 4.17225 54.8498 6.41101C55.7656 8.64978 56.1727 11.4991 56.1727 15.1625V17.1978C56.1727 20.6577 55.7656 23.507 54.8498 25.7458C53.9339 27.9846 52.4075 29.6128 50.3722 30.4269C52.1022 31.0374 53.5269 32.0551 54.5445 33.5815C55.5621 35.1079 56.3762 36.9396 56.7832 39.0766C57.1903 41.2136 57.4956 43.6559 57.4956 46.2V48.0317C57.4956 52.5092 56.9868 56.1727 55.9691 58.9202C54.9515 61.7696 53.3233 63.8048 51.1863 65.026C49.0493 66.3489 46.2 66.9594 42.7401 66.9594H27.8828V67.0612ZM38.1608 27.1705H41.926C42.8418 27.1705 43.5542 27.0687 44.063 26.7634C44.5718 26.5599 45.0806 26.0511 45.3859 25.4405C45.6912 24.8299 45.8947 23.9141 45.9965 22.7947C46.0982 21.6753 46.2 20.2507 46.2 18.5207V14.4502C46.2 12.6185 45.9965 11.2956 45.6912 10.3797C45.3859 9.46387 44.8771 8.8533 44.1647 8.44625C43.4524 8.14096 42.6383 7.93744 41.5189 7.93744H38.059V27.1705H38.1608ZM38.1608 59.1238H41.8242C43.1471 59.1238 44.2665 58.8185 45.0806 58.2079C45.8947 57.5973 46.5053 56.5797 46.8106 55.2568C47.1158 53.8321 47.3194 52.0004 47.3194 49.5581V44.1647C47.3194 40.9083 47.0141 38.5678 46.4035 37.0414C45.6912 35.515 44.3683 34.8026 42.4348 34.8026H38.1608V59.1238Z" fill="#E0B650"/>
</svg>
